<?xml version="1.0" encoding="UTF-8" standalone="no"?>
<!DOCTYPE svg PUBLIC "-//W3C//DTD SVG 1.1//EN"
 "http://www.w3.org/Graphics/SVG/1.1/DTD/svg11.dtd">
<!-- Generated by graphviz version 2.48.0 (0)
 -->
<!-- Title: noncompressed_read_path Pages: 1 -->
<svg width="659pt" height="1422pt"
 viewBox="0.00 0.00 659.39 1421.92" xmlns="http://www.w3.org/2000/svg" xmlns:xlink="http://www.w3.org/1999/xlink">
<g id="graph0" class="graph" transform="scale(1 1) rotate(0) translate(4 1417.92)">
<title>noncompressed_read_path</title>
<polygon fill="white" stroke="transparent" points="-4,4 -4,-1417.92 655.39,-1417.92 655.39,4 -4,4"/>
<text text-anchor="middle" x="325.7" y="-1397.92" font-family="Droid Sans Fallback" font-size="15.00">非压缩读路径：从 read() 到磁盘</text>
<g id="clust1" class="cluster">
<title>cluster_vfs</title>
<path fill="none" stroke="#888888" stroke-dasharray="5,2" d="M190,-1154.92C190,-1154.92 316,-1154.92 316,-1154.92 322,-1154.92 328,-1160.92 328,-1166.92 328,-1166.92 328,-1347.92 328,-1347.92 328,-1353.92 322,-1359.92 316,-1359.92 316,-1359.92 190,-1359.92 190,-1359.92 184,-1359.92 178,-1353.92 178,-1347.92 178,-1347.92 178,-1166.92 178,-1166.92 178,-1160.92 184,-1154.92 190,-1154.92"/>
<text text-anchor="middle" x="253" y="-1347.92" font-family="Droid Sans Fallback" font-size="10.00">VFS / iomap 框架（内核通用）</text>
</g>
<g id="clust2" class="cluster">
<title>cluster_erofs_in</title>
<path fill="none" stroke="#2d7d2d" stroke-dasharray="5,2" d="M20,-1064.92C20,-1064.92 476,-1064.92 476,-1064.92 482,-1064.92 488,-1070.92 488,-1076.92 488,-1076.92 488,-1123.92 488,-1123.92 488,-1129.92 482,-1135.92 476,-1135.92 476,-1135.92 20,-1135.92 20,-1135.92 14,-1135.92 8,-1129.92 8,-1123.92 8,-1123.92 8,-1076.92 8,-1076.92 8,-1070.92 14,-1064.92 20,-1064.92"/>
<text text-anchor="middle" x="248" y="-1123.92" font-family="Droid Sans Fallback" font-size="10.00">EROFS 的入口（都在 data.c）</text>
</g>
<!-- vfs -->
<g id="node1" class="node">
<title>vfs</title>
<path fill="#e8f0fe" stroke="black" d="M302.5,-1332.92C302.5,-1332.92 201.5,-1332.92 201.5,-1332.92 195.5,-1332.92 189.5,-1326.92 189.5,-1320.92 189.5,-1320.92 189.5,-1308.92 189.5,-1308.92 189.5,-1302.92 195.5,-1296.92 201.5,-1296.92 201.5,-1296.92 302.5,-1296.92 302.5,-1296.92 308.5,-1296.92 314.5,-1302.92 314.5,-1308.92 314.5,-1308.92 314.5,-1320.92 314.5,-1320.92 314.5,-1326.92 308.5,-1332.92 302.5,-1332.92"/>
<text text-anchor="middle" x="252" y="-1317.92" font-family="Droid Sans Fallback" font-size="10.00">read() / readahead / DIO</text>
<text text-anchor="middle" x="252" y="-1306.92" font-family="Droid Sans Fallback" font-size="10.00">/ FIEMAP / SEEK_HOLE</text>
</g>
<!-- iomapfw -->
<g id="node2" class="node">
<title>iomapfw</title>
<path fill="#fff2cc" stroke="black" d="M291.5,-1203.92C291.5,-1203.92 212.5,-1203.92 212.5,-1203.92 206.5,-1203.92 200.5,-1197.92 200.5,-1191.92 200.5,-1191.92 200.5,-1174.92 200.5,-1174.92 200.5,-1168.92 206.5,-1162.92 212.5,-1162.92 212.5,-1162.92 291.5,-1162.92 291.5,-1162.92 297.5,-1162.92 303.5,-1168.92 303.5,-1174.92 303.5,-1174.92 303.5,-1191.92 303.5,-1191.92 303.5,-1197.92 297.5,-1203.92 291.5,-1203.92"/>
<text text-anchor="middle" x="252" y="-1191.92" font-family="Droid Sans Fallback" font-size="10.00">iomap 框架</text>
<text text-anchor="middle" x="252" y="-1180.92" font-family="Droid Sans Fallback" font-size="10.00">iomap_read_folio()</text>
<text text-anchor="middle" x="252" y="-1169.92" font-family="Droid Sans Fallback" font-size="10.00">iomap_readahead()</text>
</g>
<!-- vfs&#45;&gt;iomapfw -->
<g id="edge1" class="edge">
<title>vfs&#45;&gt;iomapfw</title>
<path fill="none" stroke="black" d="M252,-1296.72C252,-1275.77 252,-1240.02 252,-1214.48"/>
<polygon fill="black" stroke="black" points="255.5,-1214.23 252,-1204.23 248.5,-1214.23 255.5,-1214.23"/>
</g>
<!-- e1 -->
<g id="node3" class="node">
<title>e1</title>
<path fill="#d5e8d4" stroke="black" d="M90,-1108.92C90,-1108.92 28,-1108.92 28,-1108.92 22,-1108.92 16,-1102.92 16,-1096.92 16,-1096.92 16,-1084.92 16,-1084.92 16,-1078.92 22,-1072.92 28,-1072.92 28,-1072.92 90,-1072.92 90,-1072.92 96,-1072.92 102,-1078.92 102,-1084.92 102,-1084.92 102,-1096.92 102,-1096.92 102,-1102.92 96,-1108.92 90,-1108.92"/>
<text text-anchor="middle" x="59" y="-1093.92" font-family="Droid Sans Fallback" font-size="10.00">erofs_read_folio</text>
<text text-anchor="middle" x="59" y="-1082.92" font-family="Droid Sans Fallback" font-size="10.00">data.c</text>
</g>
<!-- iomapfw&#45;&gt;e1 -->
<g id="edge2" class="edge">
<title>iomapfw&#45;&gt;e1</title>
<path fill="none" stroke="black" d="M200.2,-1170.18C172.94,-1162.54 139.54,-1151.21 112,-1135.92 102.17,-1130.46 92.42,-1123.08 84.01,-1115.93"/>
<polygon fill="black" stroke="black" points="86.21,-1113.2 76.4,-1109.21 81.58,-1118.45 86.21,-1113.2"/>
</g>
<!-- e2 -->
<g id="node4" class="node">
<title>e2</title>
<path fill="#d5e8d4" stroke="black" d="M199.5,-1108.92C199.5,-1108.92 132.5,-1108.92 132.5,-1108.92 126.5,-1108.92 120.5,-1102.92 120.5,-1096.92 120.5,-1096.92 120.5,-1084.92 120.5,-1084.92 120.5,-1078.92 126.5,-1072.92 132.5,-1072.92 132.5,-1072.92 199.5,-1072.92 199.5,-1072.92 205.5,-1072.92 211.5,-1078.92 211.5,-1084.92 211.5,-1084.92 211.5,-1096.92 211.5,-1096.92 211.5,-1102.92 205.5,-1108.92 199.5,-1108.92"/>
<text text-anchor="middle" x="166" y="-1093.92" font-family="Droid Sans Fallback" font-size="10.00">erofs_readahead</text>
<text text-anchor="middle" x="166" y="-1082.92" font-family="Droid Sans Fallback" font-size="10.00">data.c 附近</text>
</g>
<!-- iomapfw&#45;&gt;e2 -->
<g id="edge3" class="edge">
<title>iomapfw&#45;&gt;e2</title>
<path fill="none" stroke="black" d="M233.34,-1162.78C220.5,-1149.27 203.35,-1131.22 189.57,-1116.71"/>
<polygon fill="black" stroke="black" points="191.73,-1113.91 182.31,-1109.07 186.66,-1118.73 191.73,-1113.91"/>
</g>
<!-- e3 -->
<g id="node5" class="node">
<title>e3</title>
<path fill="#d5e8d4" stroke="black" d="M316,-1108.92C316,-1108.92 242,-1108.92 242,-1108.92 236,-1108.92 230,-1102.92 230,-1096.92 230,-1096.92 230,-1084.92 230,-1084.92 230,-1078.92 236,-1072.92 242,-1072.92 242,-1072.92 316,-1072.92 316,-1072.92 322,-1072.92 328,-1078.92 328,-1084.92 328,-1084.92 328,-1096.92 328,-1096.92 328,-1102.92 322,-1108.92 316,-1108.92"/>
<text text-anchor="middle" x="279" y="-1093.92" font-family="Droid Sans Fallback" font-size="10.00">erofs_file_read_iter</text>
<text text-anchor="middle" x="279" y="-1082.92" font-family="Droid Sans Fallback" font-size="10.00">（DIO 路径）</text>
</g>
<!-- iomapfw&#45;&gt;e3 -->
<g id="edge4" class="edge">
<title>iomapfw&#45;&gt;e3</title>
<path fill="none" stroke="black" d="M257.86,-1162.78C261.7,-1149.89 266.78,-1132.88 270.99,-1118.75"/>
<polygon fill="black" stroke="black" points="274.38,-1119.66 273.88,-1109.07 267.67,-1117.66 274.38,-1119.66"/>
</g>
<!-- e4 -->
<g id="node6" class="node">
<title>e4</title>
<path fill="#d5e8d4" stroke="black" d="M468,-1108.92C468,-1108.92 358,-1108.92 358,-1108.92 352,-1108.92 346,-1102.92 346,-1096.92 346,-1096.92 346,-1084.92 346,-1084.92 346,-1078.92 352,-1072.92 358,-1072.92 358,-1072.92 468,-1072.92 468,-1072.92 474,-1072.92 480,-1078.92 480,-1084.92 480,-1084.92 480,-1096.92 480,-1096.92 480,-1102.92 474,-1108.92 468,-1108.92"/>
<text text-anchor="middle" x="413" y="-1093.92" font-family="Droid Sans Fallback" font-size="10.00">erofs_fiemap / erofs_bmap</text>
<text text-anchor="middle" x="413" y="-1082.92" font-family="Droid Sans Fallback" font-size="10.00">data.c</text>
</g>
<!-- iomapfw&#45;&gt;e4 -->
<g id="edge5" class="edge">
<title>iomapfw&#45;&gt;e4</title>
<path fill="none" stroke="black" d="M288.51,-1162.7C303.57,-1154.5 321.17,-1144.83 337,-1135.92 349.39,-1128.94 362.83,-1121.21 374.92,-1114.2"/>
<polygon fill="black" stroke="black" points="376.98,-1117.06 383.86,-1109.01 373.46,-1111 376.98,-1117.06"/>
</g>
<!-- ops -->
<g id="node7" class="node">
<title>ops</title>
<path fill="#fff2cc" stroke="black" d="M255.5,-1035.92C255.5,-1035.92 170.5,-1035.92 170.5,-1035.92 164.5,-1035.92 158.5,-1029.92 158.5,-1023.92 158.5,-1023.92 158.5,-984.92 158.5,-984.92 158.5,-978.92 164.5,-972.92 170.5,-972.92 170.5,-972.92 255.5,-972.92 255.5,-972.92 261.5,-972.92 267.5,-978.92 267.5,-984.92 267.5,-984.92 267.5,-1023.92 267.5,-1023.92 267.5,-1029.92 261.5,-1035.92 255.5,-1035.92"/>
<text text-anchor="middle" x="213" y="-1023.92" font-family="Droid Sans Fallback" font-size="10.00">erofs_iomap_ops</text>
<text text-anchor="middle" x="213" y="-1012.92" font-family="Droid Sans Fallback" font-size="10.00">data.c</text>
<text text-anchor="middle" x="213" y="-1001.92" font-family="Droid Sans Fallback" font-size="10.00">─────────</text>
<text text-anchor="middle" x="213" y="-990.92" font-family="Droid Sans Fallback" font-size="10.00">把 EROFS 的映射能力</text>
<text text-anchor="middle" x="213" y="-979.92" font-family="Droid Sans Fallback" font-size="10.00">交给 iomap 框架</text>
</g>
<!-- e1&#45;&gt;ops -->
<g id="edge6" class="edge">
<title>e1&#45;&gt;ops</title>
<path fill="none" stroke="black" d="M90.16,-1072.82C107.16,-1063.49 128.84,-1051.59 149.24,-1040.4"/>
<polygon fill="black" stroke="black" points="151.11,-1043.36 158.2,-1035.49 147.75,-1037.23 151.11,-1043.36"/>
</g>
<!-- e2&#45;&gt;ops -->
<g id="edge7" class="edge">
<title>e2&#45;&gt;ops</title>
<path fill="none" stroke="black" d="M175.51,-1072.82C179.99,-1064.77 185.53,-1054.8 190.97,-1045.03"/>
<polygon fill="black" stroke="black" points="194.09,-1046.61 195.9,-1036.16 187.98,-1043.2 194.09,-1046.61"/>
</g>
<!-- e3&#45;&gt;ops -->
<g id="edge8" class="edge">
<title>e3&#45;&gt;ops</title>
<path fill="none" stroke="black" d="M265.64,-1072.82C259.16,-1064.52 251.1,-1054.19 243.24,-1044.13"/>
<polygon fill="black" stroke="black" points="245.93,-1041.89 237.02,-1036.16 240.41,-1046.2 245.93,-1041.89"/>
</g>
<!-- e4&#45;&gt;ops -->
<g id="edge9" class="edge">
<title>e4&#45;&gt;ops</title>
<path fill="none" stroke="black" d="M360.38,-1072.86C344.96,-1067.5 328.17,-1061.3 313,-1054.92 301.12,-1049.92 288.66,-1044.17 276.72,-1038.41"/>
<polygon fill="black" stroke="black" points="278.24,-1035.25 267.71,-1034.01 275.16,-1041.54 278.24,-1035.25"/>
</g>
<!-- begin -->
<g id="node8" class="node">
<title>begin</title>
<path fill="#fff2cc" stroke="black" d="M299.59,-901.42C299.59,-901.42 269.75,-927.91 269.75,-927.91 265.27,-931.89 254.78,-935.87 248.78,-935.87 248.78,-935.87 177.22,-935.87 177.22,-935.87 171.22,-935.87 160.73,-931.89 156.25,-927.91 156.25,-927.91 126.41,-901.42 126.41,-901.42 121.93,-897.44 121.93,-889.47 126.41,-885.49 126.41,-885.49 156.25,-859.01 156.25,-859.01 160.73,-855.03 171.22,-851.04 177.22,-851.04 177.22,-851.04 248.78,-851.04 248.78,-851.04 254.78,-851.04 265.27,-855.03 269.75,-859.01 269.75,-859.01 299.59,-885.49 299.59,-885.49 304.07,-889.47 304.07,-897.44 299.59,-901.42"/>
<text text-anchor="middle" x="213" y="-907.46" font-family="Droid Sans Fallback" font-size="10.00">erofs_iomap_begin()</text>
<text text-anchor="middle" x="213" y="-896.46" font-family="Droid Sans Fallback" font-size="10.00">data.c</text>
<text text-anchor="middle" x="213" y="-885.46" font-family="Droid Sans Fallback" font-size="10.00">─────────</text>
<text text-anchor="middle" x="213" y="-874.46" font-family="Droid Sans Fallback" font-size="10.00">★ 本阶段的核心函数 ★</text>
</g>
<!-- ops&#45;&gt;begin -->
<g id="edge10" class="edge">
<title>ops&#45;&gt;begin</title>
<path fill="none" stroke="black" d="M213,-972.77C213,-964.54 213,-955.41 213,-946.37"/>
<polygon fill="black" stroke="black" points="216.5,-946.25 213,-936.25 209.5,-946.25 216.5,-946.25"/>
</g>
<!-- mapblocks -->
<g id="node9" class="node">
<title>mapblocks</title>
<path fill="#d5e8d4" stroke="black" d="M284,-814C284,-814 142,-814 142,-814 136,-814 130,-808 130,-802 130,-802 130,-763 130,-763 130,-757 136,-751 142,-751 142,-751 284,-751 284,-751 290,-751 296,-757 296,-763 296,-763 296,-802 296,-802 296,-808 290,-814 284,-814"/>
<text text-anchor="middle" x="213" y="-802" font-family="Droid Sans Fallback" font-size="10.00">erofs_map_blocks()</text>
<text text-anchor="middle" x="213" y="-791" font-family="Droid Sans Fallback" font-size="10.00">data.c</text>
<text text-anchor="middle" x="213" y="-780" font-family="Droid Sans Fallback" font-size="10.00">─────────</text>
<text text-anchor="middle" x="213" y="-769" font-family="Droid Sans Fallback" font-size="10.00">文件偏移 → 文件系统内的物理地址</text>
<text text-anchor="middle" x="213" y="-758" font-family="Droid Sans Fallback" font-size="10.00">（还没确定是哪个设备）</text>
</g>
<!-- begin&#45;&gt;mapblocks -->
<g id="edge11" class="edge">
<title>begin&#45;&gt;mapblocks</title>
<path fill="none" stroke="black" d="M213,-850.95C213,-842.14 213,-832.84 213,-824.06"/>
<polygon fill="black" stroke="black" points="216.5,-824.04 213,-814.04 209.5,-824.04 216.5,-824.04"/>
</g>
<!-- branch -->
<g id="node10" class="node">
<title>branch</title>
<path fill="#ffe6cc" stroke="black" d="M201.45,-710.76C201.45,-710.76 117.55,-687.24 117.55,-687.24 111.78,-685.62 111.78,-682.38 117.55,-680.76 117.55,-680.76 201.45,-657.24 201.45,-657.24 207.22,-655.62 218.78,-655.62 224.55,-657.24 224.55,-657.24 308.45,-680.76 308.45,-680.76 314.22,-682.38 314.22,-685.62 308.45,-687.24 308.45,-687.24 224.55,-710.76 224.55,-710.76 218.78,-712.38 207.22,-712.38 201.45,-710.76"/>
<text text-anchor="middle" x="213" y="-687" font-family="Droid Sans Fallback" font-size="10.00">datalayout 是什么？</text>
<text text-anchor="middle" x="213" y="-676" font-family="Droid Sans Fallback" font-size="10.00">data.c</text>
</g>
<!-- mapblocks&#45;&gt;branch -->
<g id="edge12" class="edge">
<title>mapblocks&#45;&gt;branch</title>
<path fill="none" stroke="black" d="M213,-750.97C213,-742.47 213,-733.13 213,-724.21"/>
<polygon fill="black" stroke="black" points="216.5,-724.02 213,-714.02 209.5,-724.02 216.5,-724.02"/>
</g>
<!-- chunks -->
<g id="node11" class="node">
<title>chunks</title>
<path fill="#e8f0fe" stroke="black" d="M224.5,-608C224.5,-608 101.5,-608 101.5,-608 95.5,-608 89.5,-602 89.5,-596 89.5,-596 89.5,-535 89.5,-535 89.5,-529 95.5,-523 101.5,-523 101.5,-523 224.5,-523 224.5,-523 230.5,-523 236.5,-529 236.5,-535 236.5,-535 236.5,-596 236.5,-596 236.5,-602 230.5,-608 224.5,-608"/>
<text text-anchor="middle" x="163" y="-596" font-family="Droid Sans Fallback" font-size="10.00">CHUNK_BASED</text>
<text text-anchor="middle" x="163" y="-585" font-family="Droid Sans Fallback" font-size="10.00">erofs_map_chunks()</text>
<text text-anchor="middle" x="163" y="-574" font-family="Droid Sans Fallback" font-size="10.00">data.c</text>
<text text-anchor="middle" x="163" y="-563" font-family="Droid Sans Fallback" font-size="10.00">─────────</text>
<text text-anchor="middle" x="163" y="-552" font-family="Droid Sans Fallback" font-size="10.00">按 chunk 查索引，</text>
<text text-anchor="middle" x="163" y="-541" font-family="Droid Sans Fallback" font-size="10.00">设备号编入地址高 16 位</text>
<text text-anchor="middle" x="163" y="-530" font-family="Droid Sans Fallback" font-size="10.00">（见 08&#45;chunk&#45;deviceid.dot）</text>
</g>
<!-- branch&#45;&gt;chunks -->
<g id="edge13" class="edge">
<title>branch&#45;&gt;chunks</title>
<path fill="none" stroke="black" d="M201.78,-656.86C196.77,-645.19 190.69,-631.03 184.85,-617.41"/>
<polygon fill="black" stroke="black" points="188.02,-615.91 180.86,-608.11 181.58,-618.68 188.02,-615.91"/>
<text text-anchor="middle" x="218.5" y="-628.8" font-family="Droid Sans Fallback" font-size="9.00">datalayout=4</text>
</g>
<!-- flat -->
<g id="node12" class="node">
<title>flat</title>
<path fill="#d5e8d4" stroke="black" d="M379,-597C379,-597 267,-597 267,-597 261,-597 255,-591 255,-585 255,-585 255,-546 255,-546 255,-540 261,-534 267,-534 267,-534 379,-534 379,-534 385,-534 391,-540 391,-546 391,-546 391,-585 391,-585 391,-591 385,-597 379,-597"/>
<text text-anchor="middle" x="323" y="-585" font-family="Droid Sans Fallback" font-size="10.00">FLAT_PLAIN / FLAT_INLINE</text>
<text text-anchor="middle" x="323" y="-574" font-family="Droid Sans Fallback" font-size="10.00">data.c</text>
<text text-anchor="middle" x="323" y="-563" font-family="Droid Sans Fallback" font-size="10.00">─────────</text>
<text text-anchor="middle" x="323" y="-552" font-family="Droid Sans Fallback" font-size="10.00">主体在独立块，</text>
<text text-anchor="middle" x="323" y="-541" font-family="Droid Sans Fallback" font-size="10.00">尾部内联在 inode 后</text>
</g>
<!-- branch&#45;&gt;flat -->
<g id="edge14" class="edge">
<title>branch&#45;&gt;flat</title>
<path fill="none" stroke="black" d="M234.73,-659.98C249.52,-644.32 269.46,-623.2 286.64,-605.01"/>
<polygon fill="black" stroke="black" points="289.49,-607.09 293.81,-597.41 284.4,-602.28 289.49,-607.09"/>
<text text-anchor="middle" x="294.5" y="-628.8" font-family="Droid Sans Fallback" font-size="9.00">datalayout=0/2</text>
</g>
<!-- mapdev -->
<g id="node16" class="node">
<title>mapdev</title>
<path fill="#d5e8d4" stroke="black" d="M308.5,-258C308.5,-258 201.5,-258 201.5,-258 195.5,-258 189.5,-252 189.5,-246 189.5,-246 189.5,-196 189.5,-196 189.5,-190 195.5,-184 201.5,-184 201.5,-184 308.5,-184 308.5,-184 314.5,-184 320.5,-190 320.5,-196 320.5,-196 320.5,-246 320.5,-246 320.5,-252 314.5,-258 308.5,-258"/>
<text text-anchor="middle" x="255" y="-246" font-family="Droid Sans Fallback" font-size="10.00">erofs_map_dev()</text>
<text text-anchor="middle" x="255" y="-235" font-family="Droid Sans Fallback" font-size="10.00">data.c</text>
<text text-anchor="middle" x="255" y="-224" font-family="Droid Sans Fallback" font-size="10.00">─────────</text>
<text text-anchor="middle" x="255" y="-213" font-family="Droid Sans Fallback" font-size="10.00">按 device_id 找设备</text>
<text text-anchor="middle" x="255" y="-202" font-family="Droid Sans Fallback" font-size="10.00">→ 得到 bdev / dax_dev</text>
<text text-anchor="middle" x="255" y="-191" font-family="Droid Sans Fallback" font-size="10.00">→ addr = dif&#45;&gt;fsoff + m_pa</text>
</g>
<!-- chunks&#45;&gt;mapdev -->
<g id="edge18" class="edge">
<title>chunks&#45;&gt;mapdev</title>
<path fill="none" stroke="black" d="M157.22,-522.59C151.55,-467.63 148.04,-369.47 182,-295 186.88,-284.3 194.06,-274.29 202.03,-265.31"/>
<polygon fill="black" stroke="black" points="204.58,-267.71 208.88,-258.03 199.48,-262.91 204.58,-267.71"/>
</g>
<!-- tailb -->
<g id="node13" class="node">
<title>tailb</title>
<path fill="#ffe6cc" stroke="black" d="M311.79,-481.71C311.79,-481.71 227.21,-449.29 227.21,-449.29 221.6,-447.15 221.6,-442.85 227.21,-440.71 227.21,-440.71 311.79,-408.29 311.79,-408.29 317.4,-406.15 328.6,-406.15 334.21,-408.29 334.21,-408.29 418.79,-440.71 418.79,-440.71 424.4,-442.85 424.4,-447.15 418.79,-449.29 418.79,-449.29 334.21,-481.71 334.21,-481.71 328.6,-483.85 317.4,-483.85 311.79,-481.71"/>
<text text-anchor="middle" x="323" y="-453.5" font-family="Droid Sans Fallback" font-size="10.00">map&#45;&gt;m_la 是否小于</text>
<text text-anchor="middle" x="323" y="-442.5" font-family="Droid Sans Fallback" font-size="10.00">主体末尾 pos？</text>
<text text-anchor="middle" x="323" y="-431.5" font-family="Droid Sans Fallback" font-size="10.00">data.c</text>
</g>
<!-- flat&#45;&gt;tailb -->
<g id="edge15" class="edge">
<title>flat&#45;&gt;tailb</title>
<path fill="none" stroke="black" d="M323,-533.98C323,-522.51 323,-509.14 323,-496.34"/>
<polygon fill="black" stroke="black" points="326.5,-496.25 323,-486.25 319.5,-496.25 326.5,-496.25"/>
</g>
<!-- indata -->
<g id="node14" class="node">
<title>indata</title>
<path fill="#d5e8d4" stroke="black" d="M325,-352.5C325,-352.5 203,-352.5 203,-352.5 197,-352.5 191,-346.5 191,-340.5 191,-340.5 191,-312.5 191,-312.5 191,-306.5 197,-300.5 203,-300.5 203,-300.5 325,-300.5 325,-300.5 331,-300.5 337,-306.5 337,-312.5 337,-312.5 337,-340.5 337,-340.5 337,-346.5 331,-352.5 325,-352.5"/>
<text text-anchor="middle" x="264" y="-340.5" font-family="Droid Sans Fallback" font-size="10.00">主体：在独立数据块</text>
<text text-anchor="middle" x="264" y="-329.5" font-family="Droid Sans Fallback" font-size="10.00">m_pa = startblk 转字节 + m_la</text>
<text text-anchor="middle" x="264" y="-318.5" font-family="Droid Sans Fallback" font-size="10.00">m_flags = MAPPED</text>
<text text-anchor="middle" x="264" y="-307.5" font-family="Droid Sans Fallback" font-size="10.00">data.c</text>
</g>
<!-- tailb&#45;&gt;indata -->
<g id="edge16" class="edge">
<title>tailb&#45;&gt;indata</title>
<path fill="none" stroke="black" d="M305.93,-410.3C298.21,-395.06 289.1,-377.06 281.34,-361.75"/>
<polygon fill="black" stroke="black" points="284.36,-359.95 276.71,-352.61 278.11,-363.11 284.36,-359.95"/>
<text text-anchor="middle" x="316" y="-378.8" font-family="Droid Sans Fallback" font-size="9.00">是（主体）</text>
</g>
<!-- intail -->
<g id="node15" class="node">
<title>intail</title>
<path fill="#ffe6cc" stroke="black" d="M492.5,-358C492.5,-358 367.5,-358 367.5,-358 361.5,-358 355.5,-352 355.5,-346 355.5,-346 355.5,-307 355.5,-307 355.5,-301 361.5,-295 367.5,-295 367.5,-295 492.5,-295 492.5,-295 498.5,-295 504.5,-301 504.5,-307 504.5,-307 504.5,-346 504.5,-346 504.5,-352 498.5,-358 492.5,-358"/>
<text text-anchor="middle" x="430" y="-346" font-family="Droid Sans Fallback" font-size="10.00">尾部：内联在 inode 后</text>
<text text-anchor="middle" x="430" y="-335" font-family="Droid Sans Fallback" font-size="10.00">m_pa = erofs_iloc + inode_isize</text>
<text text-anchor="middle" x="430" y="-324" font-family="Droid Sans Fallback" font-size="10.00"> &#160;&#160;&#160;&#160;&#160;&#160;+ xattr_isize + blkoff</text>
<text text-anchor="middle" x="430" y="-313" font-family="Droid Sans Fallback" font-size="10.00">m_flags |= META</text>
<text text-anchor="middle" x="430" y="-302" font-family="Droid Sans Fallback" font-size="10.00">data.c</text>
</g>
<!-- tailb&#45;&gt;intail -->
<g id="edge17" class="edge">
<title>tailb&#45;&gt;intail</title>
<path fill="none" stroke="black" d="M344.77,-412.08C353.36,-400.3 363.64,-387.12 374,-376 377.42,-372.33 381.1,-368.65 384.88,-365.06"/>
<polygon fill="black" stroke="black" points="387.26,-367.62 392.22,-358.26 382.5,-362.48 387.26,-367.62"/>
<text text-anchor="middle" x="406" y="-378.8" font-family="Droid Sans Fallback" font-size="9.00">否（尾部内联）</text>
</g>
<!-- indata&#45;&gt;mapdev -->
<g id="edge19" class="edge">
<title>indata&#45;&gt;mapdev</title>
<path fill="none" stroke="black" d="M261.82,-300.45C260.98,-290.73 259.98,-279.3 259.02,-268.2"/>
<polygon fill="black" stroke="black" points="262.5,-267.83 258.15,-258.17 255.52,-268.44 262.5,-267.83"/>
</g>
<!-- inline_read -->
<g id="node19" class="node">
<title>inline_read</title>
<path fill="#f8cecc" stroke="black" d="M509,-258C509,-258 351,-258 351,-258 345,-258 339,-252 339,-246 339,-246 339,-196 339,-196 339,-190 345,-184 351,-184 351,-184 509,-184 509,-184 515,-184 521,-190 521,-196 521,-196 521,-246 521,-246 521,-252 515,-258 509,-258"/>
<text text-anchor="middle" x="430" y="-246" font-family="Droid Sans Fallback" font-size="10.00">IOMAP_INLINE 时：</text>
<text text-anchor="middle" x="430" y="-235" font-family="Droid Sans Fallback" font-size="10.00">用 erofs_read_metabuf() 读</text>
<text text-anchor="middle" x="430" y="-224" font-family="Droid Sans Fallback" font-size="10.00">data.c</text>
<text text-anchor="middle" x="430" y="-213" font-family="Droid Sans Fallback" font-size="10.00">─────────</text>
<text text-anchor="middle" x="430" y="-202" font-family="Droid Sans Fallback" font-size="10.00">★ 阶段 2 的 erofs_buf 在这里用上了 ★</text>
<text text-anchor="middle" x="430" y="-191" font-family="Droid Sans Fallback" font-size="10.00">并把 buf.page 存进 ctx 供后续 put</text>
</g>
<!-- intail&#45;&gt;inline_read -->
<g id="edge21" class="edge">
<title>intail&#45;&gt;inline_read</title>
<path fill="none" stroke="black" d="M430,-294.73C430,-286.5 430,-277.43 430,-268.56"/>
<polygon fill="black" stroke="black" points="433.5,-268.31 430,-258.31 426.5,-268.31 433.5,-268.31"/>
</g>
<!-- setiomap -->
<g id="node17" class="node">
<title>setiomap</title>
<path fill="#fff2cc" stroke="black" d="M413.5,-147C413.5,-147 270.5,-147 270.5,-147 264.5,-147 258.5,-141 258.5,-135 258.5,-135 258.5,-85 258.5,-85 258.5,-79 264.5,-73 270.5,-73 270.5,-73 413.5,-73 413.5,-73 419.5,-73 425.5,-79 425.5,-85 425.5,-85 425.5,-135 425.5,-135 425.5,-141 419.5,-147 413.5,-147"/>
<text text-anchor="middle" x="342" y="-135" font-family="Droid Sans Fallback" font-size="10.00">填 struct iomap</text>
<text text-anchor="middle" x="342" y="-124" font-family="Droid Sans Fallback" font-size="10.00">data.c</text>
<text text-anchor="middle" x="342" y="-113" font-family="Droid Sans Fallback" font-size="10.00">─────────</text>
<text text-anchor="middle" x="342" y="-102" font-family="Droid Sans Fallback" font-size="10.00">· 未映射 → IOMAP_HOLE（:321）</text>
<text text-anchor="middle" x="342" y="-91" font-family="Droid Sans Fallback" font-size="10.00">· META → IOMAP_INLINE（:344）</text>
<text text-anchor="middle" x="342" y="-80" font-family="Droid Sans Fallback" font-size="10.00">· 其余 → IOMAP_MAPPED（:359）</text>
</g>
<!-- mapdev&#45;&gt;setiomap -->
<g id="edge20" class="edge">
<title>mapdev&#45;&gt;setiomap</title>
<path fill="none" stroke="black" d="M283.97,-183.7C291.31,-174.51 299.27,-164.54 306.87,-155.01"/>
<polygon fill="black" stroke="black" points="309.65,-157.14 313.16,-147.14 304.18,-152.77 309.65,-157.14"/>
</g>
<!-- io -->
<g id="node18" class="node">
<title>io</title>
<path fill="#e8f0fe" stroke="black" d="M386.5,-36C386.5,-36 297.5,-36 297.5,-36 291.5,-36 285.5,-30 285.5,-24 285.5,-24 285.5,-12 285.5,-12 285.5,-6 291.5,0 297.5,0 297.5,0 386.5,0 386.5,0 392.5,0 398.5,-6 398.5,-12 398.5,-12 398.5,-24 398.5,-24 398.5,-30 392.5,-36 386.5,-36"/>
<text text-anchor="middle" x="342" y="-21" font-family="Droid Sans Fallback" font-size="10.00">设备 IO</text>
<text text-anchor="middle" x="342" y="-10" font-family="Droid Sans Fallback" font-size="10.00">（block layer + 驱动）</text>
</g>
<!-- setiomap&#45;&gt;io -->
<g id="edge23" class="edge">
<title>setiomap&#45;&gt;io</title>
<path fill="none" stroke="black" d="M342,-72.91C342,-63.97 342,-54.54 342,-46.11"/>
<polygon fill="black" stroke="black" points="345.5,-46.08 342,-36.08 338.5,-46.08 345.5,-46.08"/>
</g>
<!-- note -->
<g id="node20" class="node">
<title>note</title>
<polygon fill="#fff2cc" stroke="black" points="461.5,-1388.92 336.5,-1388.92 336.5,-1240.92 467.5,-1240.92 467.5,-1382.92 461.5,-1388.92"/>
<polyline fill="none" stroke="black" points="461.5,-1388.92 461.5,-1382.92 "/>
<polyline fill="none" stroke="black" points="467.5,-1382.92 461.5,-1382.92 "/>
<text text-anchor="middle" x="402" y="-1377.72" font-family="Droid Sans Fallback" font-size="9.00">📌 和阶段 1 的实测对照：</text>
<text text-anchor="middle" x="402" y="-1357.72" font-family="Droid Sans Fallback" font-size="9.00">big.bin（100KB，Layout 2）</text>
<text text-anchor="middle" x="402" y="-1347.72" font-family="Droid Sans Fallback" font-size="9.00">有两个 extent：</text>
<text text-anchor="middle" x="402" y="-1327.72" font-family="Droid Sans Fallback" font-size="9.00">· 前 98304 字节 → 独立块</text>
<text text-anchor="middle" x="402" y="-1317.72" font-family="Droid Sans Fallback" font-size="9.00"> &#160;对应 indata 分支</text>
<text text-anchor="middle" x="402" y="-1297.72" font-family="Droid Sans Fallback" font-size="9.00">· 后 1696 字节 → 物理 1264</text>
<text text-anchor="middle" x="402" y="-1287.72" font-family="Droid Sans Fallback" font-size="9.00"> &#160;（在元数据区）</text>
<text text-anchor="middle" x="402" y="-1277.72" font-family="Droid Sans Fallback" font-size="9.00"> &#160;对应 intail 分支</text>
<text text-anchor="middle" x="402" y="-1257.72" font-family="Droid Sans Fallback" font-size="9.00">dump.erofs 看到的现象，</text>
<text text-anchor="middle" x="402" y="-1247.72" font-family="Droid Sans Fallback" font-size="9.00">就是这两段代码产生的。</text>
</g>
<!-- setiomap&#45;&gt;note -->
<g id="edge24" class="edge">
<title>setiomap&#45;&gt;note</title>
<path fill="none" stroke="black" stroke-dasharray="1,5" d="M425.68,-121.8C464.19,-131.43 506.47,-149.62 530,-184 769.15,-533.41 599.09,-726.27 492,-1135.92 482.54,-1172.1 465.05,-1209.43 447.98,-1240.51"/>
</g>
<!-- inline_read&#45;&gt;setiomap -->
<g id="edge22" class="edge">
<title>inline_read&#45;&gt;setiomap</title>
<path fill="none" stroke="black" d="M400.7,-183.7C393.28,-174.51 385.22,-164.54 377.53,-155.01"/>
<polygon fill="black" stroke="black" points="380.18,-152.72 371.17,-147.14 374.73,-157.12 380.18,-152.72"/>
</g>
</g>
</svg>
