<?xml version="1.0" encoding="UTF-8" standalone="no"?>
<!DOCTYPE svg PUBLIC "-//W3C//DTD SVG 1.1//EN"
 "http://www.w3.org/Graphics/SVG/1.1/DTD/svg11.dtd">
<!-- Generated by graphviz version 2.48.0 (0)
 -->
<!-- Title: ishare_two_inodes Pages: 1 -->
<svg width="984pt" height="808pt"
 viewBox="0.00 0.00 984.00 807.50" xmlns="http://www.w3.org/2000/svg" xmlns:xlink="http://www.w3.org/1999/xlink">
<g id="graph0" class="graph" transform="scale(1 1) rotate(0) translate(4 803.5)">
<title>ishare_two_inodes</title>
<polygon fill="white" stroke="transparent" points="-4,4 -4,-803.5 980,-803.5 980,4 -4,4"/>
<text text-anchor="middle" x="488" y="-782.7" font-family="Droid Sans Fallback" font-size="16.00">ishare：三个外壳（真实 inode）→ 一个真身（共享 inode）</text>
<text text-anchor="middle" x="488" y="-764.7" font-family="Droid Sans Fallback" font-size="16.00">u3000正向 sharedentry（找上去，绿实线）　·　反向 ishare_list（串下来，橙虚线）</text>
<!-- real1 -->
<g id="node1" class="node">
<title>real1</title>
<polygon fill="#d6e4f7" stroke="transparent" points="8,-469.5 8,-751.5 236,-751.5 236,-469.5 8,-469.5"/>
<text text-anchor="start" x="54" y="-737.1" font-family="Droid Sans Fallback" font-weight="bold" font-size="13.00">真实 inode #1（外壳）</text>
<text text-anchor="start" x="13" y="-717.3" font-family="Droid Sans Fallback" font-size="9.00">用户看到的文件；每个挂载实例各一份</text>
<text text-anchor="start" x="13" y="-698.7" font-family="Droid Sans Fallback" font-weight="bold" font-size="11.00">struct erofs_inode {</text>
<text text-anchor="start" x="47.5" y="-678.7" font-family="Droid Sans Fallback" font-size="11.00">　struct list_head </text>
<text text-anchor="start" x="139.5" y="-678.7" font-family="Droid Sans Fallback" font-weight="bold" font-size="11.00" fill="#1565c0">ishare_list</text>
<text text-anchor="start" x="192.5" y="-678.7" font-family="Droid Sans Fallback" font-size="11.00">;</text>
<text text-anchor="start" x="13" y="-667.7" font-family="Droid Sans Fallback" font-size="11.00"> &#160;&#160;&#160;&#160;&#160;&#160;&#160;&#160;&#160;　　　</text>
<text text-anchor="start" x="77" y="-667.7" font-family="Droid Sans Fallback" font-size="9.00" fill="#1565c0">↑ 链表【节点】——反向关联的这一端</text>
<text text-anchor="start" x="13" y="-647.7" font-family="Droid Sans Fallback" font-size="11.00">　union {</text>
<text text-anchor="start" x="13" y="-627.7" font-family="Droid Sans Fallback" font-size="11.00" fill="#9e9e9e">　　fingerprint;</text>
<text text-anchor="start" x="13" y="-607.7" font-family="Droid Sans Fallback" font-size="11.00" fill="#9e9e9e">　　spinlock_t ishare_lock;　✗ 不用</text>
<polygon fill="#c8e6c9" stroke="transparent" points="9,-580.5 9,-600.5 235,-600.5 235,-580.5 9,-580.5"/>
<text text-anchor="start" x="13" y="-588.7" font-family="Droid Sans Fallback" font-size="11.00">　　struct dentry *</text>
<text text-anchor="start" x="110" y="-588.7" font-family="Droid Sans Fallback" font-weight="bold" font-size="11.00" fill="#2e7d32">sharedentry</text>
<text text-anchor="start" x="175" y="-588.7" font-family="Droid Sans Fallback" font-size="11.00">;　✓ 用</text>
<text text-anchor="start" x="13" y="-567.7" font-family="Droid Sans Fallback" font-size="11.00">　};</text>
<text text-anchor="start" x="13" y="-548.7" font-family="Droid Sans Fallback" font-weight="bold" font-size="11.00">};</text>
<text text-anchor="start" x="13" y="-528.7" font-family="Droid Sans Fallback" font-weight="bold" font-size="11.00">struct inode vfs_inode {</text>
<text text-anchor="start" x="23.5" y="-508.7" font-family="Droid Sans Fallback" font-size="11.00">　i_fop = &amp;erofs_ishare_fops</text>
<text text-anchor="start" x="13" y="-497.7" font-family="Droid Sans Fallback" font-size="11.00"> &#160;&#160;&#160;&#160;&#160;&#160;&#160;&#160;&#160;　　　</text>
<text text-anchor="start" x="77" y="-497.7" font-family="Droid Sans Fallback" font-size="9.00">↑ 打开时被换成背后文件</text>
<text text-anchor="start" x="13" y="-478.7" font-family="Droid Sans Fallback" font-weight="bold" font-size="11.00">};</text>
<polygon fill="none" stroke="#5b7fa6" points="8,-469.5 8,-751.5 236,-751.5 236,-469.5 8,-469.5"/>
</g>
<!-- real2 -->
<g id="node2" class="node">
<title>real2</title>
<polygon fill="#d6e4f7" stroke="transparent" points="24,-237 24,-426 220,-426 220,-237 24,-237"/>
<text text-anchor="start" x="59" y="-411.9" font-family="Droid Sans Fallback" font-weight="bold" font-size="12.00">真实 inode #2（外壳）</text>
<text text-anchor="start" x="29" y="-392.3" font-family="Droid Sans Fallback" font-size="9.00">挂载 B 里的同内容文件</text>
<text text-anchor="start" x="29" y="-373.7" font-family="Droid Sans Fallback" font-weight="bold" font-size="11.00">struct erofs_inode {</text>
<text text-anchor="start" x="29" y="-353.7" font-family="Droid Sans Fallback" font-size="11.00">　struct list_head </text>
<text text-anchor="start" x="121" y="-353.7" font-family="Droid Sans Fallback" font-weight="bold" font-size="11.00" fill="#1565c0">ishare_list</text>
<text text-anchor="start" x="174" y="-353.7" font-family="Droid Sans Fallback" font-size="11.00">;</text>
<text text-anchor="start" x="39.5" y="-342.7" font-family="Droid Sans Fallback" font-size="11.00"> &#160;&#160;&#160;&#160;&#160;&#160;&#160;&#160;&#160;　　　</text>
<text text-anchor="start" x="103.5" y="-342.7" font-family="Droid Sans Fallback" font-size="9.00" fill="#1565c0">↑ 链表【节点】</text>
<text text-anchor="start" x="29" y="-322.7" font-family="Droid Sans Fallback" font-size="11.00">　union {</text>
<polygon fill="#c8e6c9" stroke="transparent" points="25,-295.5 25,-315.5 219,-315.5 219,-295.5 25,-295.5"/>
<text text-anchor="start" x="29" y="-303.7" font-family="Droid Sans Fallback" font-size="11.00">　　struct dentry *</text>
<text text-anchor="start" x="126" y="-303.7" font-family="Droid Sans Fallback" font-weight="bold" font-size="11.00" fill="#2e7d32">sharedentry</text>
<text text-anchor="start" x="191" y="-303.7" font-family="Droid Sans Fallback" font-size="11.00">;　✓</text>
<text text-anchor="start" x="29" y="-282.7" font-family="Droid Sans Fallback" font-size="11.00">　};</text>
<text text-anchor="start" x="29" y="-263.7" font-family="Droid Sans Fallback" font-weight="bold" font-size="11.00">};</text>
<text text-anchor="start" x="29" y="-244.3" font-family="Droid Sans Fallback" font-size="9.00">与 #1 指向同一个共享 inode</text>
<polygon fill="none" stroke="#5b7fa6" points="24,-237 24,-426 220,-426 220,-237 24,-237"/>
</g>
<!-- real1&#45;&gt;real2 -->
<g id="edge7" class="edge">
<title>real1&#45;&gt;real2</title>
<path fill="none" stroke="#e65100" stroke-width="2" stroke-dasharray="5,2" d="M122,-465.36C122,-457.01 122,-448.66 122,-440.31"/>
<polygon fill="#e65100" stroke="#e65100" stroke-width="2" points="125.5,-440.13 122,-430.13 118.5,-440.13 125.5,-440.13"/>
</g>
<!-- den -->
<g id="node4" class="node">
<title>den</title>
<polygon fill="#fff8e1" stroke="transparent" points="372,-287 372,-376 450,-376 450,-287 372,-287"/>
<text text-anchor="start" x="379" y="-361.9" font-family="Droid Sans Fallback" font-weight="bold" font-size="12.00">桥：dentry</text>
<text text-anchor="start" x="377" y="-342.3" font-family="Droid Sans Fallback" font-size="9.00">d_obtain_alias(si)</text>
<text text-anchor="start" x="377.5" y="-324.3" font-family="Droid Sans Fallback" font-size="9.00">disconnected</text>
<text text-anchor="start" x="377" y="-314.3" font-family="Droid Sans Fallback" font-size="9.00">不在目录树里</text>
<text text-anchor="start" x="377" y="-295.7" font-family="Droid Sans Fallback" font-weight="bold" font-size="11.00">d_inode()</text>
<polygon fill="none" stroke="#f9a825" points="372,-287 372,-376 450,-376 450,-287 372,-287"/>
</g>
<!-- real1&#45;&gt;den -->
<g id="edge1" class="edge">
<title>real1&#45;&gt;den</title>
<path fill="none" stroke="#2e7d32" stroke-width="2" d="M244.08,-553.18C277.09,-533.48 310.91,-509.06 337,-480.5 360.75,-454.5 378.47,-419.34 390.5,-389.71"/>
<polygon fill="#2e7d32" stroke="#2e7d32" stroke-width="2" points="393.79,-390.89 394.2,-380.3 387.28,-388.33 393.79,-390.89"/>
<text text-anchor="middle" x="299.5" y="-543.7" font-family="Droid Sans Fallback" font-size="11.00" fill="#2e7d32">① sharedentry</text>
</g>
<!-- real3 -->
<g id="node3" class="node">
<title>real3</title>
<polygon fill="#d6e4f7" stroke="transparent" points="24,-4 24,-193 220,-193 220,-4 24,-4"/>
<text text-anchor="start" x="59" y="-178.9" font-family="Droid Sans Fallback" font-weight="bold" font-size="12.00">真实 inode #3（外壳）</text>
<text text-anchor="start" x="29" y="-159.3" font-family="Droid Sans Fallback" font-size="9.00">同一挂载内的另一个副本</text>
<text text-anchor="start" x="29" y="-140.7" font-family="Droid Sans Fallback" font-weight="bold" font-size="11.00">struct erofs_inode {</text>
<text text-anchor="start" x="29" y="-120.7" font-family="Droid Sans Fallback" font-size="11.00">　struct list_head </text>
<text text-anchor="start" x="121" y="-120.7" font-family="Droid Sans Fallback" font-weight="bold" font-size="11.00" fill="#1565c0">ishare_list</text>
<text text-anchor="start" x="174" y="-120.7" font-family="Droid Sans Fallback" font-size="11.00">;</text>
<text text-anchor="start" x="39.5" y="-109.7" font-family="Droid Sans Fallback" font-size="11.00"> &#160;&#160;&#160;&#160;&#160;&#160;&#160;&#160;&#160;　　　</text>
<text text-anchor="start" x="103.5" y="-109.7" font-family="Droid Sans Fallback" font-size="9.00" fill="#1565c0">↑ 链表【节点】</text>
<text text-anchor="start" x="29" y="-89.7" font-family="Droid Sans Fallback" font-size="11.00">　union {</text>
<polygon fill="#c8e6c9" stroke="transparent" points="25,-62.5 25,-82.5 219,-82.5 219,-62.5 25,-62.5"/>
<text text-anchor="start" x="29" y="-70.7" font-family="Droid Sans Fallback" font-size="11.00">　　struct dentry *</text>
<text text-anchor="start" x="126" y="-70.7" font-family="Droid Sans Fallback" font-weight="bold" font-size="11.00" fill="#2e7d32">sharedentry</text>
<text text-anchor="start" x="191" y="-70.7" font-family="Droid Sans Fallback" font-size="11.00">;　✓</text>
<text text-anchor="start" x="29" y="-49.7" font-family="Droid Sans Fallback" font-size="11.00">　};</text>
<text text-anchor="start" x="29" y="-30.7" font-family="Droid Sans Fallback" font-weight="bold" font-size="11.00">};</text>
<text text-anchor="start" x="29" y="-11.3" font-family="Droid Sans Fallback" font-size="9.00">与 #1 指向同一个共享 inode</text>
<polygon fill="none" stroke="#5b7fa6" points="24,-4 24,-193 220,-193 220,-4 24,-4"/>
</g>
<!-- real2&#45;&gt;real3 -->
<g id="edge8" class="edge">
<title>real2&#45;&gt;real3</title>
<path fill="none" stroke="#e65100" stroke-width="2" stroke-dasharray="5,2" d="M122,-232.91C122,-224.37 122,-215.82 122,-207.28"/>
<polygon fill="#e65100" stroke="#e65100" stroke-width="2" points="125.5,-207.25 122,-197.25 118.5,-207.25 125.5,-207.25"/>
</g>
<!-- real2&#45;&gt;den -->
<g id="edge2" class="edge">
<title>real2&#45;&gt;den</title>
<path fill="none" stroke="#2e7d32" stroke-width="2" d="M228.24,-331.5C270.61,-331.5 317.78,-331.5 353.45,-331.5"/>
<polygon fill="#2e7d32" stroke="#2e7d32" stroke-width="2" points="353.66,-335 363.66,-331.5 353.66,-328 353.66,-335"/>
</g>
<!-- real3&#45;&gt;den -->
<g id="edge3" class="edge">
<title>real3&#45;&gt;den</title>
<path fill="none" stroke="#2e7d32" stroke-width="2" d="M228.24,-183.94C271.52,-219.07 319.81,-258.28 355.73,-287.44"/>
<polygon fill="#2e7d32" stroke="#2e7d32" stroke-width="2" points="353.69,-290.29 363.66,-293.88 358.1,-284.86 353.69,-290.29"/>
</g>
<!-- shared -->
<g id="node5" class="node">
<title>shared</title>
<polygon fill="#ffe6b8" stroke="transparent" points="570,-174.5 570,-488.5 771,-488.5 771,-174.5 570,-174.5"/>
<text text-anchor="start" x="613.5" y="-474.1" font-family="Droid Sans Fallback" font-weight="bold" font-size="13.00">共享 inode（真身）</text>
<text text-anchor="start" x="575.5" y="-454.3" font-family="Droid Sans Fallback" font-size="9.00">按指纹索引，全局唯一</text>
<text text-anchor="start" x="578.5" y="-444.3" font-family="Droid Sans Fallback" font-size="9.00">住在 pseudo_erofs 上</text>
<text text-anchor="start" x="575.5" y="-425.7" font-family="Droid Sans Fallback" font-weight="bold" font-size="11.00">struct erofs_inode {</text>
<text text-anchor="start" x="596.5" y="-405.7" font-family="Droid Sans Fallback" font-size="11.00">　struct list_head </text>
<text text-anchor="start" x="688.5" y="-405.7" font-family="Droid Sans Fallback" font-weight="bold" font-size="11.00" fill="#e65100">ishare_list</text>
<text text-anchor="start" x="741.5" y="-405.7" font-family="Droid Sans Fallback" font-size="11.00">;</text>
<text text-anchor="start" x="575.5" y="-394.7" font-family="Droid Sans Fallback" font-size="11.00"> &#160;&#160;&#160;&#160;&#160;&#160;&#160;&#160;&#160;　　　</text>
<text text-anchor="start" x="639.5" y="-394.7" font-family="Droid Sans Fallback" font-size="9.00" fill="#e65100">↑ 链表【头】——串起上面三个</text>
<text text-anchor="start" x="575.5" y="-374.7" font-family="Droid Sans Fallback" font-size="11.00">　union {</text>
<polygon fill="#c8e6c9" stroke="transparent" points="571.5,-347.5 571.5,-367.5 770.5,-367.5 770.5,-347.5 571.5,-347.5"/>
<text text-anchor="start" x="575.5" y="-355.7" font-family="Droid Sans Fallback" font-size="11.00">　　</text>
<text text-anchor="start" x="598.5" y="-355.7" font-family="Droid Sans Fallback" font-size="11.00" fill="#2e7d32">fingerprint;</text>
<text text-anchor="start" x="656.5" y="-355.7" font-family="Droid Sans Fallback" font-size="11.00">　✓ 用</text>
<polygon fill="#c8e6c9" stroke="transparent" points="571.5,-327.5 571.5,-347.5 770.5,-347.5 770.5,-327.5 571.5,-327.5"/>
<text text-anchor="start" x="575.5" y="-335.7" font-family="Droid Sans Fallback" font-size="11.00">　　spinlock_t </text>
<text text-anchor="start" x="651.5" y="-335.7" font-family="Droid Sans Fallback" font-weight="bold" font-size="11.00" fill="#2e7d32">ishare_lock</text>
<text text-anchor="start" x="710.5" y="-335.7" font-family="Droid Sans Fallback" font-size="11.00">;　✓ 用</text>
<text text-anchor="start" x="575.5" y="-314.7" font-family="Droid Sans Fallback" font-size="11.00" fill="#9e9e9e">　　sharedentry;　✗ 不用</text>
<text text-anchor="start" x="575.5" y="-294.7" font-family="Droid Sans Fallback" font-size="11.00">　};</text>
<text text-anchor="start" x="575.5" y="-275.7" font-family="Droid Sans Fallback" font-weight="bold" font-size="11.00">};</text>
<text text-anchor="start" x="575.5" y="-255.7" font-family="Droid Sans Fallback" font-weight="bold" font-size="11.00">struct inode si {</text>
<text text-anchor="start" x="575.5" y="-235.7" font-family="Droid Sans Fallback" font-size="11.00">　i_fop = &amp;empty_fops　</text>
<text text-anchor="start" x="699.5" y="-235.7" font-family="Droid Sans Fallback" font-size="9.00">（全空）</text>
<text text-anchor="start" x="576" y="-224.7" font-family="Droid Sans Fallback" font-size="11.00"> &#160;&#160;&#160;&#160;&#160;&#160;&#160;&#160;&#160;　i_mode = 0444|S_IFREG</text>
<text text-anchor="start" x="588" y="-213.7" font-family="Droid Sans Fallback" font-size="11.00"> &#160;&#160;&#160;&#160;&#160;&#160;&#160;&#160;&#160;　i_size　与外壳一致</text>
<text text-anchor="start" x="595.5" y="-202.7" font-family="Droid Sans Fallback" font-size="11.00"> &#160;&#160;&#160;&#160;&#160;&#160;&#160;&#160;&#160;　</text>
<text text-anchor="start" x="637.5" y="-202.7" font-family="Droid Sans Fallback" font-weight="bold" font-size="11.00">i_mapping</text>
<text text-anchor="start" x="691.5" y="-202.7" font-family="Droid Sans Fallback" font-size="11.00"> ──┐</text>
<text text-anchor="start" x="575.5" y="-183.7" font-family="Droid Sans Fallback" font-weight="bold" font-size="11.00">};</text>
<text text-anchor="start" x="582.5" y="-183.7" font-family="Droid Sans Fallback" font-size="11.00">　　　　　　　　│</text>
<polygon fill="none" stroke="#ef8c00" points="570,-174.5 570,-488.5 771,-488.5 771,-174.5 570,-174.5"/>
</g>
<!-- den&#45;&gt;shared -->
<g id="edge4" class="edge">
<title>den&#45;&gt;shared</title>
<path fill="none" stroke="#2e7d32" stroke-width="2" d="M458.04,-331.5C484.26,-331.5 518.41,-331.5 551.6,-331.5"/>
<polygon fill="#2e7d32" stroke="#2e7d32" stroke-width="2" points="551.86,-335 561.86,-331.5 551.86,-328 551.86,-335"/>
<text text-anchor="middle" x="514.5" y="-334.7" font-family="Droid Sans Fallback" font-size="11.00" fill="#2e7d32">② d_inode()</text>
</g>
<!-- shared&#45;&gt;real1 -->
<g id="edge6" class="edge">
<title>shared&#45;&gt;real1</title>
<path fill="none" stroke="#e65100" stroke-width="2" stroke-dasharray="5,2" d="M561.78,-272.09C498.39,-245.59 418.46,-227.39 355,-262.5 273.75,-307.45 295.5,-362.24 244,-439.5 240.21,-445.19 236.31,-450.97 232.36,-456.8"/>
<polygon fill="#e65100" stroke="#e65100" stroke-width="2" points="229.27,-455.12 226.53,-465.35 235.06,-459.06 229.27,-455.12"/>
<text text-anchor="middle" x="411" y="-265.7" font-family="Droid Sans Fallback" font-size="11.00" fill="#e65100">③ ishare_list 反向链表</text>
</g>
<!-- pgc -->
<g id="node6" class="node">
<title>pgc</title>
<polygon fill="#d5e8d4" stroke="transparent" points="876,-302.5 876,-360.5 968,-360.5 968,-302.5 876,-302.5"/>
<text text-anchor="start" x="890" y="-346.9" font-family="Droid Sans Fallback" font-weight="bold" font-size="12.00">page cache</text>
<text text-anchor="start" x="899" y="-328.3" font-family="Droid Sans Fallback" font-size="9.00">真正的数据</text>
<text text-anchor="start" x="881" y="-319.3" font-family="Droid Sans Fallback" font-weight="bold" font-size="9.00">三个外壳共用这一份</text>
<text text-anchor="start" x="881" y="-310.3" font-family="Droid Sans Fallback" font-size="9.00">← ishare 的全部目的</text>
<polygon fill="none" stroke="#388e3c" points="876,-302.5 876,-360.5 968,-360.5 968,-302.5 876,-302.5"/>
</g>
<!-- shared&#45;&gt;pgc -->
<g id="edge5" class="edge">
<title>shared&#45;&gt;pgc</title>
<path fill="none" stroke="#388e3c" stroke-width="2" d="M779.12,-331.5C805.89,-331.5 833.73,-331.5 857.59,-331.5"/>
<polygon fill="#388e3c" stroke="#388e3c" stroke-width="2" points="857.9,-335 867.9,-331.5 857.9,-328 857.9,-335"/>
<text text-anchor="middle" x="823.5" y="-334.7" font-family="Droid Sans Fallback" font-size="11.00">i_mapping</text>
</g>
</g>
</svg>
